Coordinates
version=1
nRows=32
nColumns=12
inDegrees=yes

Units are S.I. units (second, meters, Newtons, ...)
Angles are in degrees

endheader
time	SC_y	SC_z	SC_x	AC_y	AC_z	AC_x	GH_y	GH_z	GH_yy	EL_x	PS_y
       0.0              -39.18          37.91          58.62          34.29         -5.009         -11.51           84.3          13.98          47.66           69.4          71.65
    0.0183              -39.18          37.91          58.62           34.3         -5.007         -11.51           84.3          13.98          47.65          69.41          71.66
   0.03661              -39.17          37.91          58.62          34.31         -5.005         -11.51           84.3          13.99          47.63          69.41          71.67
   0.05491              -39.17          37.91          58.61          34.31         -5.002         -11.51           84.3          13.99          47.62          69.41          71.68
   0.07321              -39.17           37.9          58.61          34.32           -5.0         -11.51           84.3           14.0          47.61          69.41          71.68
   0.09151              -39.17           37.9          58.61          34.32         -4.997         -11.51           84.3           14.0          47.59          69.42          71.69
    0.1098              -39.16           37.9           58.6          34.33         -4.994         -11.51           84.3           14.0          47.58          69.42           71.7
    0.1281              -39.16          37.89           58.6          34.34         -4.991         -11.51           84.3          14.01          47.56          69.42          71.72
    0.1464              -39.15          37.89          58.59          34.35         -4.988         -11.51           84.3          14.02          47.54          69.42          71.73
    0.1647              -39.15          37.89          58.58          34.35         -4.985         -11.51           84.3          14.02          47.52          69.43          71.74
     0.183              -39.15          37.88          58.58          34.36         -4.981         -11.51           84.3          14.03           47.5          69.43          71.75
    0.2013              -39.14          37.88          58.57          34.37         -4.977         -11.51           84.3          14.03          47.48          69.44          71.77
    0.2196              -39.14          37.87          58.56          34.38         -4.973         -11.51          84.29          14.04          47.45          69.44          71.78
    0.2379              -39.13          37.87          58.56          34.39         -4.968         -11.51          84.29          14.05          47.42          69.44           71.8
    0.2562              -39.12          37.86          58.55          34.41         -4.963         -11.51          84.29          14.06           47.4          69.45          71.82
    0.2745              -39.12          37.86          58.54          34.42         -4.958         -11.52          84.29          14.07          47.36          69.45          71.84
    0.2928              -39.11          37.85          58.53          34.43         -4.952         -11.52          84.29          14.08          47.33          69.46          71.86
    0.3111               -39.1          37.84          58.52          34.45         -4.945         -11.52          84.29          14.09          47.29          69.47          71.88
    0.3294              -39.09          37.84          58.51          34.47         -4.938         -11.52          84.28           14.1          47.25          69.47          71.91
    0.3478              -39.09          37.83          58.49          34.49         -4.931         -11.52          84.28          14.12          47.21          69.48          71.94
    0.3661              -39.08          37.82          58.48          34.51         -4.922         -11.52          84.28          14.13          47.16          69.49          71.97
    0.3844              -39.06          37.81          58.46          34.53         -4.913         -11.52          84.28          14.15          47.11           69.5           72.0
    0.4027              -39.05           37.8          58.45          34.55         -4.903         -11.52          84.27          14.16          47.05          69.51          72.04
     0.421              -39.04          37.78          58.43          34.58         -4.891         -11.52          84.27          14.18          46.98          69.52          72.08
    0.4393              -39.02          37.77          58.41          34.61         -4.879         -11.52          84.27          14.21          46.91          69.53          72.13
    0.4576              -39.01          37.75          58.38          34.65         -4.865         -11.52          84.26          14.23          46.83          69.55          72.18
    0.4759              -38.99          37.74          58.36          34.69         -4.849         -11.52          84.26          14.26          46.74          69.56          72.24
    0.4942              -38.97          37.72          58.33          34.73         -4.831         -11.52          84.25          14.29          46.63          69.58          72.31
    0.5125              -38.94          37.69          58.29          34.78         -4.811         -11.53          84.25          14.32          46.52           69.6          72.38
    0.5308              -38.91          37.67          58.25          34.83         -4.788         -11.53          84.24          14.36          46.39          69.62          72.46
    0.5491              -38.88          37.64          58.21           34.9         -4.762         -11.53          84.23          14.41          46.24          69.64          72.56
    0.5674              -38.85          37.61          58.16          34.97         -4.732         -11.53          84.22          14.46          46.06          69.67          72.67
